<svg xmlns="http://www.w3.org/2000/svg" xmlns:xlink="http://www.w3.org/1999/xlink" viewBox="0 0 118.81 62.75"><defs><style>.a{fill:none;}.b{clip-path:url(#a);}.c{fill:#ed8d2e;}.d{fill:#fff;}</style><clipPath id="a" transform="translate(-0.03 -0.12)"><polygon class="a" points="0 63.1 115.44 63.37 120.57 0.27 5.12 0 0 63.1"/></clipPath></defs><title>first-orange</title><g class="b"><path class="c" d="M105.63,53.53a15.68,15.68,0,0,1-13.94,9.34L0,62.68,13.26,30.61a15.65,15.65,0,0,1,13.93-9.34l91.65.21ZM45.48,33c6.07,0,13.2-5.36,15.94-12s.06-12-6-12.06-13.19,5.36-15.93,12-.06,12,6,12.06" transform="translate(-0.03 -0.12)"/><path class="d" d="M33.19,50.72l6.36-15.41,9.77,0L43,50.75c-.54,1.3-2.32,3.36-4.15,3.35H29.43c1.07,0,3.32-2.29,3.76-3.37" transform="translate(-0.03 -0.12)"/><path class="d" d="M95.34,50.87c-.44,1.07-.09,3.37,1,3.37l-9.53,0c-1.83,0-1.91-2.07-1.38-3.38l6-14.46,12.47-6.14-2.13,5.16h3.87l-2.78,4H100Z" transform="translate(-0.03 -0.12)"/><path class="d" d="M64.47,43.15c-.25-1.3-2.22-1.41-3.71-.5-1.67,1-2.38,2.25-3.28,4.44-.08.19-.16.39-.26.61l-1.31,3.2c-.54,1.3-2.46,3.24-4.51,3.24l-8.79,0c1.93-.23,3.1-2,3.65-3.35l6.37-15.41,9.69,0L60.83,39c2.7-2.63,4.89-3.85,7.31-3.84a5.38,5.38,0,0,1,2.38.6Z" transform="translate(-0.03 -0.12)"/><path class="d" d="M66.53,47.25c.2,2.88,2.82,2.91,4.57,2.91a2.88,2.88,0,0,0,2.6-1.45c.55-1.32-.82-1.61-2.73-2.36-3-1.17-4-2.91-2.89-5.62,1.48-3.57,5.7-5.72,12-5.7a20.62,20.62,0,0,1,8.57,1.59l-3.88,5c-.17-1.88-1.93-2.51-4.13-2.52a3,3,0,0,0-2.57,1.49,1,1,0,0,0,.17,1.12c.44.55,1.85.69,3.45,1.3,2.87,1.1,3.82,2.72,2.79,5.2-1.53,3.7-6.17,6.36-12.4,6.35a18.71,18.71,0,0,1-9.48-2.28Z" transform="translate(-0.03 -0.12)"/><path class="c" d="M48,26.81c2.79,0,6.05-2.46,7.31-5.5s0-5.51-2.75-5.52-6,2.46-7.32,5.5,0,5.52,2.76,5.52" transform="translate(-0.03 -0.12)"/><path class="d" d="M55.29,21.34c1.26-3.07,0-5.54-2.75-5.55s-6,2.46-7.32,5.52Z" transform="translate(-0.03 -0.12)"/><path class="d" d="M34.63,33.26a3.85,3.85,0,0,1,3.17-2.69c.92,0,1.48.21,1.3.75l2.71-6.52a6.68,6.68,0,0,0-3.26-.6c-6.1,0-12.07,4-14.7,10.44-.09.19-.16.38-.32.76H21l-2.77,3.85h3.7L15.86,54h0C14.11,58,11.75,62.62,8.56,62.7l8.57,0c2.53-.08,6.89-4.17,8.89-8.65h0l6.12-14.8h5.74l1.63-3.94H33.76c.06-.12.84-2,.87-2.07" transform="translate(-0.03 -0.12)"/><path class="c" d="M38.55,24.2a8.28,8.28,0,0,0,1,5.94l2.22-5.34a6.68,6.68,0,0,0-3.26-.6" transform="translate(-0.03 -0.12)"/><polygon class="c" points="41.95 42.53 59.52 0 58.23 0 40.65 42.52 41.95 42.53"/><path class="d" d="M55.42,8.92a7.32,7.32,0,0,0-.81,0l-2.85,6.89a5.12,5.12,0,0,1,.78-.06,4.41,4.41,0,0,1,.52,0l2.85-6.88a3.93,3.93,0,0,0-.49,0" transform="translate(-0.03 -0.12)"/><path class="c" d="M45.52,20.68c-.11.2-.2.4-.29.61a6.29,6.29,0,0,0-.27.8l9.94,0a5.39,5.39,0,0,0,.39-.8c.08-.2.16-.41.22-.61Z" transform="translate(-0.03 -0.12)"/></g></svg>